<svg height="512pt" viewBox="0 -76 512 512" width="512pt" xmlns="http://www.w3.org/2000/svg"><path d="m121 180h30v90h-30zm0 0"/><path d="m361 180h30v90h-30zm0 0"/><path d="m467 90h-422c-24.8125 0-45 20.1875-45 45v60c0 8.289062 6.710938 15 15 15 8.277344 0 15 6.722656 15 15s-6.722656 15-15 15c-8.289062 0-15 6.710938-15 15v60c0 24.8125 20.1875 45 45 45h422c24.8125 0 45-20.1875 45-45v-60c0-8.289062-6.710938-15-15-15-8.277344 0-15-6.722656-15-15s6.722656-15 15-15c8.289062 0 15-6.710938 15-15v-60c0-24.8125-20.1875-45-45-45zm-286 195c0 8.289062-6.710938 15-15 15h-60c-8.289062 0-15-6.710938-15-15v-120c0-8.289062 6.710938-15 15-15h60c8.289062 0 15 6.710938 15 15zm120 0c0 8.289062-6.710938 15-15 15h-60c-8.289062 0-15-6.710938-15-15v-120c0-8.289062 6.710938-15 15-15h60c8.289062 0 15 6.710938 15 15zm120 0c0 8.289062-6.710938 15-15 15h-60c-8.289062 0-15-6.710938-15-15v-120c0-8.289062 6.710938-15 15-15h60c8.289062 0 15 6.710938 15 15zm0 0"/><path d="m241 180h30v90h-30zm0 0"/><path d="m151 0h30v60h-30zm0 0"/><path d="m211 0h30v60h-30zm0 0"/><path d="m271 0h30v60h-30zm0 0"/><path d="m331 0h30v60h-30zm0 0"/><path d="m451 30c0-16.570312-13.429688-30-30-30h-30v60h60zm0 0"/><path d="m121 0h-30c-16.570312 0-30 13.429688-30 30v30h60zm0 0"/></svg>